<svg width="80" height="80" viewBox="0 0 80 80" fill="none" xmlns="http://www.w3.org/2000/svg">
<path d="M45.5264 10.083C53.7161 10.083 60.3757 16.8446 60.376 25.2109C60.376 33.5775 53.7162 40.3398 45.5264 40.3398C37.3365 40.3398 30.6768 33.5775 30.6768 25.2109C30.677 16.8446 37.3366 10.083 45.5264 10.083Z" fill="url(#paint0_linear_174_2644)" stroke="url(#paint1_linear_174_2644)" stroke-width="1.3535"/>
<foreignObject x="-9.47452" y="15.3985" width="81.5809" height="62.077"><div xmlns="http://www.w3.org/1999/xhtml" style="backdrop-filter:blur(4.74px);clip-path:url(#bgblur_0_174_2644_clip_path);height:100%;width:100%"></div></foreignObject><g data-figma-bg-blur-radius="9.47452">
<mask id="path-2-inside-1_174_2644" fill="white">
<path d="M31.0518 24.873C40.6441 24.873 48.4209 32.7891 48.4209 42.5537C48.4209 43.3709 48.3652 44.1751 48.2598 44.9629H51.1846V44.9639C51.2281 44.9634 51.2718 44.9629 51.3154 44.9629C57.565 44.9629 62.6318 50.1206 62.6318 56.4824C62.6316 62.844 57.5648 68.001 51.3154 68.001C51.2717 68.001 51.2281 67.9995 51.1846 67.999V68.001H11.4473L11.4482 67.999C11.4041 67.9995 11.3596 68.001 11.3154 68.001C5.06621 68.0008 0.000256186 62.8439 0 56.4824C0 50.1208 5.06606 44.9631 11.3154 44.9629C12.2 44.9629 13.0606 45.0692 13.8867 45.2646C13.7531 44.3809 13.6836 43.4755 13.6836 42.5537C13.6836 32.7892 21.4596 24.8732 31.0518 24.873Z"/>
</mask>
<path d="M31.0518 24.873C40.6441 24.873 48.4209 32.7891 48.4209 42.5537C48.4209 43.3709 48.3652 44.1751 48.2598 44.9629H51.1846V44.9639C51.2281 44.9634 51.2718 44.9629 51.3154 44.9629C57.565 44.9629 62.6318 50.1206 62.6318 56.4824C62.6316 62.844 57.5648 68.001 51.3154 68.001C51.2717 68.001 51.2281 67.9995 51.1846 67.999V68.001H11.4473L11.4482 67.999C11.4041 67.9995 11.3596 68.001 11.3154 68.001C5.06621 68.0008 0.000256186 62.8439 0 56.4824C0 50.1208 5.06606 44.9631 11.3154 44.9629C12.2 44.9629 13.0606 45.0692 13.8867 45.2646C13.7531 44.3809 13.6836 43.4755 13.6836 42.5537C13.6836 32.7892 21.4596 24.8732 31.0518 24.873Z" fill="url(#paint2_linear_174_2644)"/>
<path d="M31.0518 24.873V23.5195H31.0517L31.0518 24.873ZM48.4209 42.5537L49.7744 42.5537V42.5537H48.4209ZM48.2598 44.9629L46.9182 44.7833C46.8664 45.1701 46.9842 45.5605 47.2412 45.8542C47.4982 46.1479 47.8695 46.3164 48.2598 46.3164V44.9629ZM51.1846 44.9629H52.5381C52.5381 44.2154 51.9321 43.6094 51.1846 43.6094V44.9629ZM51.1846 44.9639H49.8311C49.8311 45.3256 49.9758 45.6722 50.2331 45.9265C50.4903 46.1807 50.8386 46.3215 51.2002 46.3173L51.1846 44.9639ZM51.3154 44.9629V43.6094H51.3154L51.3154 44.9629ZM62.6318 56.4824L63.9853 56.4825V56.4824H62.6318ZM51.3154 68.001L51.3154 69.3545H51.3154V68.001ZM51.1846 67.999L51.2002 66.6456C50.8386 66.6414 50.4903 66.7822 50.2331 67.0364C49.9758 67.2907 49.8311 67.6373 49.8311 67.999H51.1846ZM51.1846 68.001V69.3545C51.9321 69.3545 52.5381 68.7485 52.5381 68.001H51.1846ZM11.4473 68.001L10.2367 67.3957C10.0269 67.8152 10.0493 68.3135 10.2959 68.7126C10.5425 69.1116 10.9782 69.3545 11.4473 69.3545V68.001ZM11.4482 67.999L12.6589 68.6043C12.8699 68.1822 12.8459 67.6807 12.5954 67.2807C12.345 66.8808 11.9043 66.6401 11.4324 66.6456L11.4482 67.999ZM11.3154 68.001L11.3154 69.3545H11.3154V68.001ZM0 56.4824H-1.3535V56.4825L0 56.4824ZM11.3154 44.9629V43.6094H11.3154L11.3154 44.9629ZM13.8867 45.2646L13.5751 46.5818C14.0126 46.6853 14.4729 46.5648 14.8036 46.2603C15.1343 45.9557 15.2922 45.5068 15.225 45.0623L13.8867 45.2646ZM13.6836 42.5537H12.3301V42.5537L13.6836 42.5537ZM31.0518 24.873V26.2266C39.874 26.2266 47.0674 33.5139 47.0674 42.5537H48.4209H49.7744C49.7744 32.0644 41.4142 23.5195 31.0518 23.5195V24.873ZM48.4209 42.5537L47.0674 42.5537C47.0674 43.3094 47.0159 44.0536 46.9182 44.7833L48.2598 44.9629L49.6013 45.1425C49.7145 44.2967 49.7744 43.4325 49.7744 42.5537L48.4209 42.5537ZM48.2598 44.9629V46.3164H51.1846V44.9629V43.6094H48.2598V44.9629ZM51.1846 44.9629H49.8311V44.9639H51.1846H52.5381V44.9629H51.1846ZM51.1846 44.9639L51.2002 46.3173C51.2441 46.3168 51.2805 46.3164 51.3155 46.3164L51.3154 44.9629L51.3154 43.6094C51.263 43.6094 51.2122 43.61 51.1689 43.6105L51.1846 44.9639ZM51.3154 44.9629V46.3164C56.7949 46.3164 61.2783 50.8454 61.2783 56.4824H62.6318H63.9853C63.9853 49.3959 58.3351 43.6094 51.3154 43.6094V44.9629ZM62.6318 56.4824L61.2783 56.4824C61.2781 62.1192 56.7948 66.6475 51.3154 66.6475V68.001V69.3545C58.3348 69.3545 63.9851 63.5688 63.9853 56.4825L62.6318 56.4824ZM51.3154 68.001L51.3155 66.6475C51.2724 66.6475 51.2926 66.6467 51.2002 66.6456L51.1846 67.999L51.1689 69.3524C51.1836 69.3526 51.1965 69.3529 51.2236 69.3534C51.2469 69.3539 51.2797 69.3545 51.3154 69.3545L51.3154 68.001ZM51.1846 67.999H49.8311V68.001H51.1846H52.5381V67.999H51.1846ZM51.1846 68.001V66.6475H11.4473V68.001V69.3545H51.1846V68.001ZM11.4473 68.001L12.6579 68.6063L12.6589 68.6043L11.4482 67.999L10.2376 67.3937L10.2367 67.3957L11.4473 68.001ZM11.4482 67.999L11.4324 66.6456C11.3424 66.6467 11.3577 66.6475 11.3154 66.6475V68.001V69.3545C11.3511 69.3545 11.384 69.3539 11.4078 69.3535C11.4353 69.3529 11.4487 69.3526 11.464 69.3524L11.4482 67.999ZM11.3154 68.001L11.3155 66.6475C5.83635 66.6473 1.35373 62.1191 1.3535 56.4824L0 56.4824L-1.3535 56.4825C-1.35322 63.5686 4.29608 69.3543 11.3154 69.3545L11.3154 68.001ZM0 56.4824H1.3535C1.3535 50.8454 5.83629 46.3166 11.3155 46.3164L11.3154 44.9629L11.3154 43.6094C4.29583 43.6096 -1.3535 49.3962 -1.3535 56.4824H0ZM11.3154 44.9629V46.3164C12.0911 46.3164 12.8471 46.4096 13.5751 46.5818L13.8867 45.2646L14.1983 43.9475C13.274 43.7288 12.3089 43.6094 11.3154 43.6094V44.9629ZM13.8867 45.2646L15.225 45.0623C15.1015 44.2451 15.0371 43.4074 15.0371 42.5537L13.6836 42.5537L12.3301 42.5537C12.3301 43.5437 12.4047 44.5166 12.5484 45.467L13.8867 45.2646ZM13.6836 42.5537H15.0371C15.0371 33.5139 22.2297 26.2267 31.0518 26.2266L31.0518 24.873L31.0517 23.5195C20.6894 23.5197 12.3301 32.0645 12.3301 42.5537H13.6836Z" fill="url(#paint3_linear_174_2644)" mask="url(#path-2-inside-1_174_2644)"/>
</g>
<foreignObject x="25.2618" y="15.3985" width="64.2127" height="50.116"><div xmlns="http://www.w3.org/1999/xhtml" style="backdrop-filter:blur(4.74px);clip-path:url(#bgblur_1_174_2644_clip_path);height:100%;width:100%"></div></foreignObject><g data-figma-bg-blur-radius="9.47452">
<mask id="path-4-inside-2_174_2644" fill="white">
<path d="M57.1777 24.873C64.11 24.873 69.7295 30.5937 69.7295 37.6504C69.7295 38.2407 69.6894 38.8216 69.6133 39.3906H71.7275V39.3926C71.7591 39.3922 71.7906 39.3906 71.8223 39.3906C76.3386 39.3906 79.9998 43.1175 80 47.7148C80 52.3124 76.3387 56.04 71.8223 56.04C71.7906 56.04 71.7591 56.0375 71.7275 56.0371V56.04H43.0098L43.0107 56.0371C42.9786 56.0375 42.9463 56.04 42.9141 56.04C38.3976 56.04 34.7363 52.3124 34.7363 47.7148C34.7366 43.1175 38.3978 39.3907 42.9141 39.3906C43.5534 39.3906 44.1753 39.4671 44.7725 39.6084C44.676 38.9701 44.626 38.3162 44.626 37.6504C44.626 30.5937 50.2456 24.8732 57.1777 24.873Z"/>
</mask>
<path d="M57.1777 24.873C64.11 24.873 69.7295 30.5937 69.7295 37.6504C69.7295 38.2407 69.6894 38.8216 69.6133 39.3906H71.7275V39.3926C71.7591 39.3922 71.7906 39.3906 71.8223 39.3906C76.3386 39.3906 79.9998 43.1175 80 47.7148C80 52.3124 76.3387 56.04 71.8223 56.04C71.7906 56.04 71.7591 56.0375 71.7275 56.0371V56.04H43.0098L43.0107 56.0371C42.9786 56.0375 42.9463 56.04 42.9141 56.04C38.3976 56.04 34.7363 52.3124 34.7363 47.7148C34.7366 43.1175 38.3978 39.3907 42.9141 39.3906C43.5534 39.3906 44.1753 39.4671 44.7725 39.6084C44.676 38.9701 44.626 38.3162 44.626 37.6504C44.626 30.5937 50.2456 24.8732 57.1777 24.873Z" fill="url(#paint4_linear_174_2644)"/>
<path d="M57.1777 24.873V23.5195H57.1777L57.1777 24.873ZM69.7295 37.6504H71.083V37.6504L69.7295 37.6504ZM69.6133 39.3906L68.2717 39.2111C68.22 39.598 68.3377 39.9883 68.5947 40.282C68.8517 40.5757 69.223 40.7441 69.6133 40.7441V39.3906ZM71.7275 39.3906H73.081C73.081 38.6431 72.4751 38.0371 71.7275 38.0371V39.3906ZM71.7275 39.3926H70.374C70.374 39.7543 70.5188 40.1009 70.776 40.3552C71.0332 40.6094 71.3815 40.7502 71.7432 40.746L71.7275 39.3926ZM71.8223 39.3906V38.0371H71.8223L71.8223 39.3906ZM80 47.7148H81.3535V47.7148L80 47.7148ZM71.8223 56.04L71.8223 57.3935H71.8223V56.04ZM71.7275 56.0371L71.7432 54.6837C71.3815 54.6795 71.0332 54.8203 70.776 55.0745C70.5188 55.3288 70.374 55.6754 70.374 56.0371H71.7275ZM71.7275 56.04V57.3935C72.4751 57.3935 73.081 56.7876 73.081 56.04H71.7275ZM43.0098 56.04L41.7257 55.612C41.5881 56.0248 41.6574 56.4785 41.9117 56.8314C42.1661 57.1844 42.5747 57.3935 43.0098 57.3935V56.04ZM43.0107 56.0371L44.2948 56.4651C44.4333 56.0497 44.3622 55.593 44.1041 55.2392C43.846 54.8855 43.4326 54.6785 42.9948 54.6837L43.0107 56.0371ZM42.9141 56.04L42.9141 57.3935H42.9141V56.04ZM34.7363 47.7148L33.3828 47.7148V47.7148H34.7363ZM42.9141 39.3906V38.0371H42.9141L42.9141 39.3906ZM44.7725 39.6084L44.4608 40.9255C44.8983 41.029 45.3586 40.9086 45.6893 40.6041C46.02 40.2996 46.1779 39.8507 46.1108 39.4062L44.7725 39.6084ZM44.626 37.6504L43.2725 37.6504V37.6504H44.626ZM57.1777 24.873V26.2266C63.3398 26.2266 68.376 31.3183 68.376 37.6504L69.7295 37.6504L71.083 37.6504C71.083 29.869 64.8801 23.5195 57.1777 23.5195V24.873ZM69.7295 37.6504H68.376C68.376 38.1794 68.3401 38.7003 68.2717 39.2111L69.6133 39.3906L70.9548 39.5701C71.0387 38.9429 71.083 38.3021 71.083 37.6504H69.7295ZM69.6133 39.3906V40.7441H71.7275V39.3906V38.0371H69.6133V39.3906ZM71.7275 39.3906H70.374V39.3926H71.7275H73.081V39.3906H71.7275ZM71.7275 39.3926L71.7432 40.746C71.7596 40.7458 71.7742 40.7455 71.7855 40.7452C71.7958 40.7449 71.8075 40.7446 71.8128 40.7444C71.828 40.744 71.8271 40.7441 71.8223 40.7441L71.8223 39.3906L71.8223 38.0371C71.7858 38.0371 71.7534 38.038 71.7369 38.0385C71.7264 38.0388 71.7224 38.0389 71.7169 38.0391C71.7124 38.0392 71.7113 38.0392 71.7119 38.0392L71.7275 39.3926ZM71.8223 39.3906V40.7441C75.5685 40.7441 78.6463 43.8422 78.6465 47.7149L80 47.7148L81.3535 47.7148C81.3532 42.3927 77.1087 38.0371 71.8223 38.0371V39.3906ZM80 47.7148H78.6465C78.6465 51.5879 75.5685 54.6865 71.8223 54.6865V56.04V57.3935C77.109 57.3935 81.3535 53.037 81.3535 47.7148H80ZM71.8223 56.04L71.8223 54.6865C71.8323 54.6865 71.8391 54.6867 71.8407 54.6868C71.8418 54.6868 71.8411 54.6868 71.8337 54.6865C71.8287 54.6863 71.8148 54.6856 71.8012 54.6851C71.7865 54.6846 71.7664 54.684 71.7432 54.6837L71.7275 56.0371L71.7119 57.3905C71.7044 57.3904 71.7001 57.3903 71.7012 57.3903C71.7034 57.3904 71.7053 57.3905 71.716 57.3909C71.7308 57.3916 71.7735 57.3935 71.8223 57.3935L71.8223 56.04ZM71.7275 56.0371H70.374V56.04H71.7275H73.081V56.0371H71.7275ZM71.7275 56.04V54.6865H43.0098V56.04V57.3935H71.7275V56.04ZM43.0098 56.04L44.2938 56.4681L44.2948 56.4651L43.0107 56.0371L41.7267 55.6091L41.7257 55.612L43.0098 56.04ZM43.0107 56.0371L42.9948 54.6837C42.9719 54.684 42.952 54.6846 42.9375 54.6851C42.924 54.6856 42.9102 54.6862 42.905 54.6864C42.8975 54.6868 42.8964 54.6868 42.8971 54.6868C42.8983 54.6867 42.9046 54.6865 42.9141 54.6865V56.04V57.3935C42.9623 57.3935 43.0047 57.3916 43.0199 57.391C43.0308 57.3905 43.0331 57.3904 43.0357 57.3903C43.0373 57.3903 43.0335 57.3904 43.0267 57.3905L43.0107 56.0371ZM42.9141 56.04L42.9141 54.6865C39.1679 54.6865 36.0898 51.5878 36.0898 47.7148H34.7363H33.3828C33.3828 53.037 37.6274 57.3935 42.9141 57.3935L42.9141 56.04ZM34.7363 47.7148L36.0898 47.7149C36.09 43.8422 39.1679 40.7442 42.9141 40.7441L42.9141 39.3906L42.9141 38.0371C37.6277 38.0372 33.3831 42.3927 33.3828 47.7148L34.7363 47.7148ZM42.9141 39.3906V40.7441C43.445 40.7441 43.9624 40.8076 44.4608 40.9255L44.7725 39.6084L45.0841 38.2913C44.3883 38.1266 43.6618 38.0371 42.9141 38.0371V39.3906ZM44.7725 39.6084L46.1108 39.4062C46.0244 38.8346 45.9795 38.2482 45.9795 37.6504H44.626H43.2725C43.2725 38.3841 43.3276 39.1056 43.4341 39.8106L44.7725 39.6084ZM44.626 37.6504L45.9795 37.6504C45.9795 31.3184 51.0157 26.2267 57.1778 26.2266L57.1777 24.873L57.1777 23.5195C49.4754 23.5197 43.2725 29.869 43.2725 37.6504L44.626 37.6504Z" fill="url(#paint5_linear_174_2644)" mask="url(#path-4-inside-2_174_2644)"/>
</g>
<defs>
<clipPath id="bgblur_0_174_2644_clip_path" transform="translate(9.47452 -15.3985)"><path d="M31.0518 24.873C40.6441 24.873 48.4209 32.7891 48.4209 42.5537C48.4209 43.3709 48.3652 44.1751 48.2598 44.9629H51.1846V44.9639C51.2281 44.9634 51.2718 44.9629 51.3154 44.9629C57.565 44.9629 62.6318 50.1206 62.6318 56.4824C62.6316 62.844 57.5648 68.001 51.3154 68.001C51.2717 68.001 51.2281 67.9995 51.1846 67.999V68.001H11.4473L11.4482 67.999C11.4041 67.9995 11.3596 68.001 11.3154 68.001C5.06621 68.0008 0.000256186 62.8439 0 56.4824C0 50.1208 5.06606 44.9631 11.3154 44.9629C12.2 44.9629 13.0606 45.0692 13.8867 45.2646C13.7531 44.3809 13.6836 43.4755 13.6836 42.5537C13.6836 32.7892 21.4596 24.8732 31.0518 24.873Z"/>
</clipPath><clipPath id="bgblur_1_174_2644_clip_path" transform="translate(-25.2618 -15.3985)"><path d="M57.1777 24.873C64.11 24.873 69.7295 30.5937 69.7295 37.6504C69.7295 38.2407 69.6894 38.8216 69.6133 39.3906H71.7275V39.3926C71.7591 39.3922 71.7906 39.3906 71.8223 39.3906C76.3386 39.3906 79.9998 43.1175 80 47.7148C80 52.3124 76.3387 56.04 71.8223 56.04C71.7906 56.04 71.7591 56.0375 71.7275 56.0371V56.04H43.0098L43.0107 56.0371C42.9786 56.0375 42.9463 56.04 42.9141 56.04C38.3976 56.04 34.7363 52.3124 34.7363 47.7148C34.7366 43.1175 38.3978 39.3907 42.9141 39.3906C43.5534 39.3906 44.1753 39.4671 44.7725 39.6084C44.676 38.9701 44.626 38.3162 44.626 37.6504C44.626 30.5937 50.2456 24.8732 57.1777 24.873Z"/>
</clipPath><linearGradient id="paint0_linear_174_2644" x1="45.5263" y1="9.40625" x2="45.5263" y2="41.0166" gradientUnits="userSpaceOnUse">
<stop stop-color="#FFE600"/>
<stop offset="1" stop-color="#FF7A00"/>
</linearGradient>
<linearGradient id="paint1_linear_174_2644" x1="45.5263" y1="9.40625" x2="45.5263" y2="41.0166" gradientUnits="userSpaceOnUse">
<stop stop-color="white"/>
<stop offset="1" stop-color="white" stop-opacity="0"/>
</linearGradient>
<linearGradient id="paint2_linear_174_2644" x1="31.3159" y1="11.0775" x2="31.3159" y2="74.0282" gradientUnits="userSpaceOnUse">
<stop stop-color="white"/>
<stop offset="1" stop-color="white" stop-opacity="0"/>
</linearGradient>
<linearGradient id="paint3_linear_174_2644" x1="31.3159" y1="24.873" x2="31.3159" y2="68.001" gradientUnits="userSpaceOnUse">
<stop stop-color="white"/>
<stop offset="1" stop-color="white" stop-opacity="0"/>
</linearGradient>
<linearGradient id="paint4_linear_174_2644" x1="59.4735" y1="25.8106" x2="59.4735" y2="59.5617" gradientUnits="userSpaceOnUse">
<stop stop-color="white"/>
<stop offset="1" stop-color="white" stop-opacity="0"/>
</linearGradient>
<linearGradient id="paint5_linear_174_2644" x1="57.3682" y1="24.873" x2="57.3682" y2="56.04" gradientUnits="userSpaceOnUse">
<stop stop-color="white"/>
<stop offset="1" stop-color="white" stop-opacity="0"/>
</linearGradient>
</defs>
</svg>
