<svg width="80" height="80" viewBox="0 0 80 80" fill="none" xmlns="http://www.w3.org/2000/svg">
<foreignObject x="-7.82546" y="2.83763" width="78.8614" height="59.2725"><div xmlns="http://www.w3.org/1999/xhtml" style="backdrop-filter:blur(4.58px);clip-path:url(#bgblur_0_174_2692_clip_path);height:100%;width:100%"></div></foreignObject><g data-figma-bg-blur-radius="9.15871">
<mask id="path-1-inside-1_174_2692" fill="white">
<path d="M31.3508 11.9963C40.6234 11.9963 48.1409 19.5138 48.1409 28.7864C48.1409 29.5626 48.0866 30.3263 47.9846 31.0745H50.8118V31.0774C50.854 31.0769 50.8963 31.0745 50.9387 31.0745C56.9799 31.0745 61.8771 35.9718 61.8772 42.0129C61.8772 48.0542 56.9799 52.9514 50.9387 52.9514C50.8963 52.9514 50.854 52.948 50.8118 52.9475V52.9514H12.3997L12.4016 52.9475C12.3584 52.948 12.3151 52.9514 12.2717 52.9514C6.23056 52.9513 1.33325 48.0541 1.33325 42.0129C1.33332 35.9718 6.2306 31.0745 12.2717 31.0745C13.1272 31.0745 13.9591 31.1758 14.7581 31.3616C14.6288 30.5221 14.5618 29.6621 14.5618 28.7864C14.5618 19.5139 22.0783 11.9964 31.3508 11.9963Z"/>
</mask>
<path d="M31.3508 11.9963C40.6234 11.9963 48.1409 19.5138 48.1409 28.7864C48.1409 29.5626 48.0866 30.3263 47.9846 31.0745H50.8118V31.0774C50.854 31.0769 50.8963 31.0745 50.9387 31.0745C56.9799 31.0745 61.8771 35.9718 61.8772 42.0129C61.8772 48.0542 56.9799 52.9514 50.9387 52.9514C50.8963 52.9514 50.854 52.948 50.8118 52.9475V52.9514H12.3997L12.4016 52.9475C12.3584 52.948 12.3151 52.9514 12.2717 52.9514C6.23056 52.9513 1.33325 48.0541 1.33325 42.0129C1.33332 35.9718 6.2306 31.0745 12.2717 31.0745C13.1272 31.0745 13.9591 31.1758 14.7581 31.3616C14.6288 30.5221 14.5618 29.6621 14.5618 28.7864C14.5618 19.5139 22.0783 11.9964 31.3508 11.9963Z" fill="url(#paint0_linear_174_2692)"/>
<path d="M31.3508 11.9963V10.688H31.3508L31.3508 11.9963ZM48.1409 28.7864L49.4493 28.7864V28.7864H48.1409ZM47.9846 31.0745L46.6882 30.8978C46.6372 31.2721 46.7505 31.6503 46.999 31.9349C47.2474 32.2195 47.6068 32.3829 47.9846 32.3829V31.0745ZM50.8118 31.0745H52.1202C52.1202 30.3519 51.5344 29.7661 50.8118 29.7661V31.0745ZM50.8118 31.0774H49.5034C49.5034 31.427 49.6433 31.762 49.8919 32.0078C50.1405 32.2536 50.4771 32.3897 50.8267 32.3857L50.8118 31.0774ZM50.9387 31.0745V29.7661L50.9387 29.7661L50.9387 31.0745ZM61.8772 42.0129H63.1856V42.0129L61.8772 42.0129ZM50.9387 52.9514L50.9387 54.2598H50.9387V52.9514ZM50.8118 52.9475L50.8267 51.6392C50.4771 51.6352 50.1405 51.7713 49.8919 52.0171C49.6433 52.2629 49.5034 52.5979 49.5034 52.9475H50.8118ZM50.8118 52.9514V54.2598C51.5344 54.2598 52.1202 53.674 52.1202 52.9514H50.8118ZM12.3997 52.9514L11.2294 52.3663C11.0266 52.7719 11.0483 53.2535 11.2867 53.6393C11.5251 54.025 11.9462 54.2598 12.3997 54.2598V52.9514ZM12.4016 52.9475L13.5719 53.5326C13.7759 53.1246 13.7526 52.6398 13.5106 52.2532C13.2685 51.8666 12.8425 51.6339 12.3864 51.6392L12.4016 52.9475ZM12.2717 52.9514L12.2717 54.2598H12.2717V52.9514ZM1.33325 42.0129L0.0248652 42.0129V42.0129H1.33325ZM12.2717 31.0745V29.7661L12.2717 29.7661L12.2717 31.0745ZM14.7581 31.3616L14.4618 32.636C14.8848 32.7343 15.3291 32.6163 15.6476 32.3211C15.9661 32.0258 16.1173 31.5917 16.0512 31.1625L14.7581 31.3616ZM14.5618 28.7864H13.2534V28.7864L14.5618 28.7864ZM31.3508 11.9963V13.3047C39.9008 13.3047 46.8325 20.2364 46.8325 28.7864H48.1409H49.4493C49.4493 18.7912 41.346 10.688 31.3508 10.688V11.9963ZM48.1409 28.7864L46.8325 28.7863C46.8325 29.5015 46.7825 30.2062 46.6882 30.8978L47.9846 31.0745L49.281 31.2512C49.3907 30.4464 49.4492 29.6236 49.4493 28.7864L48.1409 28.7864ZM47.9846 31.0745V32.3829H50.8118V31.0745V29.7661H47.9846V31.0745ZM50.8118 31.0745H49.5034V31.0774H50.8118H52.1202V31.0745H50.8118ZM50.8118 31.0774L50.8267 32.3857C50.8644 32.3853 50.9017 32.384 50.9168 32.3835C50.9377 32.3828 50.9404 32.3828 50.9387 32.3828L50.9387 31.0745L50.9387 29.7661C50.8946 29.7661 50.855 29.7673 50.8337 29.768C50.8063 29.7689 50.8014 29.769 50.7969 29.7691L50.8118 31.0774ZM50.9387 31.0745V32.3829C56.2573 32.3829 60.5688 36.6944 60.5688 42.013L61.8772 42.0129L63.1856 42.0129C63.1855 35.2492 57.7025 29.7661 50.9387 29.7661V31.0745ZM61.8772 42.0129H60.5688C60.5688 47.3316 56.2573 51.643 50.9387 51.643V52.9514V54.2598C57.7025 54.2598 63.1856 48.7768 63.1856 42.0129H61.8772ZM50.9387 52.9514L50.9387 51.643C50.9492 51.643 50.954 51.6434 50.9318 51.6425C50.924 51.6421 50.9076 51.6414 50.8916 51.6408C50.8744 51.6402 50.852 51.6395 50.8267 51.6392L50.8118 52.9475L50.7969 54.2558C50.7925 54.2558 50.7901 54.2556 50.8186 54.2568C50.8387 54.2577 50.8858 54.2598 50.9387 54.2598L50.9387 52.9514ZM50.8118 52.9475H49.5034V52.9514H50.8118H52.1202V52.9475H50.8118ZM50.8118 52.9514V51.643H12.3997V52.9514V54.2598H50.8118V52.9514ZM12.3997 52.9514L13.5699 53.5365L13.5719 53.5326L12.4016 52.9475L11.2314 52.3624L11.2294 52.3663L12.3997 52.9514ZM12.4016 52.9475L12.3864 51.6392C12.3613 51.6395 12.3392 51.6402 12.3221 51.6408C12.3061 51.6414 12.2896 51.6421 12.2816 51.6424C12.259 51.6434 12.2626 51.643 12.2717 51.643V52.9514V54.2598C12.3242 54.2598 12.3711 54.2578 12.3919 54.2569C12.4209 54.2557 12.4197 54.2558 12.4168 54.2558L12.4016 52.9475ZM12.2717 52.9514L12.2717 51.643C6.95315 51.643 2.64164 47.3315 2.64164 42.0129H1.33325H0.0248652C0.0248652 48.7767 5.50797 54.2597 12.2717 54.2598L12.2717 52.9514ZM1.33325 42.0129L2.64164 42.013C2.6417 36.6944 6.95321 32.3829 12.2717 32.3828L12.2717 31.0745L12.2717 29.7661C5.508 29.7662 0.0249401 35.2492 0.0248652 42.0129L1.33325 42.0129ZM12.2717 31.0745V32.3829C13.0234 32.3829 13.756 32.4719 14.4618 32.636L14.7581 31.3616L15.0543 30.0872C14.1623 29.8798 13.231 29.7661 12.2717 29.7661V31.0745ZM14.7581 31.3616L16.0512 31.1625C15.9321 30.3886 15.8702 29.5952 15.8702 28.7863L14.5618 28.7864L13.2534 28.7864C13.2534 29.7289 13.3255 30.6555 13.4649 31.5607L14.7581 31.3616ZM14.5618 28.7864H15.8702C15.8702 20.2364 22.801 13.3048 31.3508 13.3047L31.3508 11.9963L31.3508 10.688C21.3557 10.6881 13.2534 18.7914 13.2534 28.7864H14.5618Z" fill="url(#paint1_linear_174_2692)" mask="url(#path-1-inside-1_174_2692)"/>
</g>
<foreignObject x="25.7541" y="2.83763" width="62.0713" height="47.917"><div xmlns="http://www.w3.org/1999/xhtml" style="backdrop-filter:blur(4.58px);clip-path:url(#bgblur_1_174_2692_clip_path);height:100%;width:100%"></div></foreignObject><g data-figma-bg-blur-radius="9.15871">
<mask id="path-3-inside-2_174_2692" fill="white">
<path d="M56.6052 11.9963C63.3063 11.9965 68.739 17.429 68.739 24.1301C68.739 24.6916 68.6996 25.2441 68.6257 25.7854H70.6687V25.7874C70.6996 25.787 70.7305 25.7854 70.7615 25.7854C75.1274 25.7854 78.6667 29.3248 78.6667 33.6907C78.6667 38.0565 75.1273 41.5959 70.7615 41.5959C70.7305 41.5959 70.6996 41.5934 70.6687 41.593V41.5959H42.9089L42.9099 41.593C42.8793 41.5934 42.8488 41.5959 42.8181 41.5959C38.4522 41.5959 34.9129 38.0566 34.9128 33.6907C34.9128 29.3247 38.4522 25.7854 42.8181 25.7854C43.4357 25.7854 44.0362 25.8585 44.613 25.9924C44.5195 25.3854 44.4714 24.7634 44.4714 24.1301C44.4714 17.4289 49.904 11.9963 56.6052 11.9963Z"/>
</mask>
<path d="M56.6052 11.9963C63.3063 11.9965 68.739 17.429 68.739 24.1301C68.739 24.6916 68.6996 25.2441 68.6257 25.7854H70.6687V25.7874C70.6996 25.787 70.7305 25.7854 70.7615 25.7854C75.1274 25.7854 78.6667 29.3248 78.6667 33.6907C78.6667 38.0565 75.1273 41.5959 70.7615 41.5959C70.7305 41.5959 70.6996 41.5934 70.6687 41.593V41.5959H42.9089L42.9099 41.593C42.8793 41.5934 42.8488 41.5959 42.8181 41.5959C38.4522 41.5959 34.9129 38.0566 34.9128 33.6907C34.9128 29.3247 38.4522 25.7854 42.8181 25.7854C43.4357 25.7854 44.0362 25.8585 44.613 25.9924C44.5195 25.3854 44.4714 24.7634 44.4714 24.1301C44.4714 17.4289 49.904 11.9963 56.6052 11.9963Z" fill="url(#paint2_linear_174_2692)"/>
<path d="M56.6052 11.9963L56.6052 10.688H56.6052V11.9963ZM68.739 24.1301L70.0474 24.1301V24.1301H68.739ZM68.6257 25.7854L67.3294 25.6085C67.2783 25.9829 67.3915 26.3611 67.64 26.6458C67.8885 26.9304 68.2479 27.0938 68.6257 27.0938V25.7854ZM70.6687 25.7854H71.9771C71.9771 25.0628 71.3913 24.477 70.6687 24.477V25.7854ZM70.6687 25.7874H69.3603C69.3603 26.137 69.5002 26.472 69.7489 26.7178C69.9975 26.9636 70.3341 27.0997 70.6837 27.0957L70.6687 25.7874ZM70.7615 25.7854L70.7615 24.477H70.7615V25.7854ZM78.6667 33.6907L79.9751 33.6907V33.6907H78.6667ZM70.7615 41.5959V42.9043L70.7615 42.9043L70.7615 41.5959ZM70.6687 41.593L70.6837 40.2847C70.3342 40.2807 69.9975 40.4168 69.7489 40.6625C69.5002 40.9083 69.3603 41.2434 69.3603 41.593H70.6687ZM70.6687 41.5959V42.9043C71.3913 42.9043 71.9771 42.3186 71.9771 41.5959H70.6687ZM42.9089 41.5959L41.6677 41.1822C41.5347 41.5812 41.6016 42.0198 41.8475 42.361C42.0934 42.7022 42.4884 42.9043 42.9089 42.9043V41.5959ZM42.9099 41.593L44.1512 42.0068C44.285 41.6053 44.2164 41.1639 43.967 40.822C43.7176 40.4801 43.3182 40.2799 42.895 40.2847L42.9099 41.593ZM42.8181 41.5959V42.9043L42.8181 42.9043L42.8181 41.5959ZM34.9128 33.6907H33.6045V33.6907L34.9128 33.6907ZM42.8181 25.7854L42.8181 24.477H42.8181V25.7854ZM44.613 25.9924L44.317 27.2669C44.7401 27.3651 45.1843 27.2471 45.5027 26.9518C45.8211 26.6565 45.9723 26.2224 45.9062 25.7932L44.613 25.9924ZM44.4714 24.1301H43.163V24.1301L44.4714 24.1301ZM56.6052 11.9963L56.6052 13.3047C62.5837 13.3048 67.4306 18.1516 67.4306 24.1301H68.739H70.0474C70.0474 16.7064 64.0289 10.6881 56.6052 10.688L56.6052 11.9963ZM68.739 24.1301L67.4306 24.1301C67.4306 24.6303 67.3955 25.1237 67.3294 25.6085L68.6257 25.7854L69.9221 25.9623C70.0037 25.3646 70.0474 24.753 70.0474 24.1301L68.739 24.1301ZM68.6257 25.7854V27.0938H70.6687V25.7854V24.477H68.6257V25.7854ZM70.6687 25.7854H69.3603V25.7874H70.6687H71.9771V25.7854H70.6687ZM70.6687 25.7874L70.6837 27.0957C70.7 27.0955 70.7145 27.0951 70.7257 27.0948C70.7359 27.0946 70.7474 27.0942 70.7526 27.0941C70.7676 27.0937 70.7665 27.0938 70.7615 27.0938V25.7854V24.477C70.7255 24.477 70.6935 24.4779 70.6775 24.4784C70.6673 24.4787 70.6633 24.4788 70.6581 24.4789C70.6538 24.4791 70.6529 24.4791 70.6537 24.4791L70.6687 25.7874ZM70.7615 25.7854L70.7615 27.0938C74.4048 27.0938 77.3584 30.0474 77.3584 33.6907H78.6667H79.9751C79.9751 28.6022 75.85 24.4771 70.7615 24.477L70.7615 25.7854ZM78.6667 33.6907L77.3584 33.6907C77.3583 37.3339 74.4047 40.2875 70.7615 40.2876L70.7615 41.5959L70.7615 42.9043C75.85 42.9043 79.9751 38.7792 79.9751 33.6907L78.6667 33.6907ZM70.7615 41.5959V40.2876C70.7716 40.2876 70.7784 40.2878 70.78 40.2878C70.7811 40.2879 70.7805 40.2878 70.7732 40.2875C70.7682 40.2873 70.7546 40.2867 70.7412 40.2862C70.7267 40.2856 70.7067 40.285 70.6837 40.2847L70.6687 41.593L70.6537 42.9013C70.6461 42.9012 70.6416 42.901 70.6426 42.9011C70.6446 42.9012 70.6464 42.9012 70.6569 42.9017C70.6712 42.9023 70.7134 42.9043 70.7615 42.9043V41.5959ZM70.6687 41.593H69.3603V41.5959H70.6687H71.9771V41.593H70.6687ZM70.6687 41.5959V40.2876H42.9089V41.5959V42.9043H70.6687V41.5959ZM42.9089 41.5959L44.1502 42.0097L44.1512 42.0068L42.9099 41.593L41.6687 41.1793L41.6677 41.1822L42.9089 41.5959ZM42.9099 41.593L42.895 40.2847C42.8718 40.285 42.8518 40.2856 42.8372 40.2862C42.8238 40.2867 42.8101 40.2873 42.8052 40.2875C42.798 40.2879 42.7975 40.2879 42.7988 40.2878C42.8006 40.2878 42.8077 40.2876 42.8181 40.2876L42.8181 41.5959L42.8181 42.9043C42.8665 42.9043 42.9088 42.9023 42.9229 42.9017C42.9333 42.9012 42.9349 42.9011 42.9367 42.9011C42.9375 42.901 42.9327 42.9012 42.9248 42.9013L42.9099 41.593ZM42.8181 41.5959V40.2876C39.1748 40.2876 36.2213 37.334 36.2212 33.6907L34.9128 33.6907L33.6045 33.6907C33.6045 38.7792 37.7296 42.9043 42.8181 42.9043V41.5959ZM34.9128 33.6907H36.2212C36.2212 30.0473 39.1748 27.0938 42.8181 27.0938V25.7854V24.477C37.7296 24.477 33.6045 28.6021 33.6045 33.6907H34.9128ZM42.8181 25.7854L42.8181 27.0938C43.3321 27.0938 43.8333 27.1546 44.317 27.2669L44.613 25.9924L44.909 24.718C44.2391 24.5624 43.5393 24.477 42.8181 24.477L42.8181 25.7854ZM44.613 25.9924L45.9062 25.7932C45.8229 25.2525 45.7798 24.6971 45.7798 24.1301L44.4714 24.1301L43.163 24.1301C43.1631 24.8297 43.2162 25.5183 43.3199 26.1916L44.613 25.9924ZM44.4714 24.1301H45.7798C45.7798 18.1515 50.6266 13.3047 56.6052 13.3047V11.9963V10.688C49.1814 10.688 43.163 16.7063 43.163 24.1301H44.4714Z" fill="url(#paint3_linear_174_2692)" mask="url(#path-3-inside-2_174_2692)"/>
</g>
<path d="M25.7392 46.4096C26.3539 45.6206 27.6176 46.0052 27.6891 47.0027L27.9882 51.1838C28.1227 53.0733 26.3207 54.5104 24.5084 53.9592C22.6959 53.4079 21.9994 51.2108 23.1635 49.7162L25.7392 46.4096Z" fill="url(#paint4_linear_174_2692)" stroke="url(#paint5_linear_174_2692)" stroke-width="1.30839"/>
<path d="M40.3671 46.4096C40.9818 45.6206 42.2456 46.0052 42.317 47.0027L42.6161 51.1838C42.7507 53.0733 40.9487 54.5104 39.1363 53.9592C37.3239 53.4079 36.6274 51.2108 37.7914 49.7162L40.3671 46.4096Z" fill="url(#paint6_linear_174_2692)" stroke="url(#paint7_linear_174_2692)" stroke-width="1.30839"/>
<path d="M54.996 46.4096C55.6107 45.6206 56.8745 46.0052 56.9459 47.0027L57.245 51.1838C57.3796 53.0733 55.5776 54.5104 53.7652 53.9592C51.9528 53.4079 51.2563 51.2108 52.4203 49.7162L54.996 46.4096Z" fill="url(#paint8_linear_174_2692)" stroke="url(#paint9_linear_174_2692)" stroke-width="1.30839"/>
<path d="M29.601 57.9877C30.2157 57.1988 31.4794 57.5833 31.5509 58.5808L31.85 62.7619C31.9845 64.6514 30.1826 66.0885 28.3702 65.5374C26.5577 64.986 25.8613 62.7889 27.0253 61.2944L29.601 57.9877Z" fill="url(#paint10_linear_174_2692)" stroke="url(#paint11_linear_174_2692)" stroke-width="1.30839"/>
<path d="M41.9614 57.9877C42.5761 57.1988 43.8398 57.5833 43.9112 58.5808L44.2103 62.7619C44.3449 64.6514 42.5429 66.0885 40.7306 65.5374C38.9181 64.986 38.2216 62.7889 39.3856 61.2944L41.9614 57.9877Z" fill="url(#paint12_linear_174_2692)" stroke="url(#paint13_linear_174_2692)" stroke-width="1.30839"/>
<defs>
<clipPath id="bgblur_0_174_2692_clip_path" transform="translate(7.82546 -2.83763)"><path d="M31.3508 11.9963C40.6234 11.9963 48.1409 19.5138 48.1409 28.7864C48.1409 29.5626 48.0866 30.3263 47.9846 31.0745H50.8118V31.0774C50.854 31.0769 50.8963 31.0745 50.9387 31.0745C56.9799 31.0745 61.8771 35.9718 61.8772 42.0129C61.8772 48.0542 56.9799 52.9514 50.9387 52.9514C50.8963 52.9514 50.854 52.948 50.8118 52.9475V52.9514H12.3997L12.4016 52.9475C12.3584 52.948 12.3151 52.9514 12.2717 52.9514C6.23056 52.9513 1.33325 48.0541 1.33325 42.0129C1.33332 35.9718 6.2306 31.0745 12.2717 31.0745C13.1272 31.0745 13.9591 31.1758 14.7581 31.3616C14.6288 30.5221 14.5618 29.6621 14.5618 28.7864C14.5618 19.5139 22.0783 11.9964 31.3508 11.9963Z"/>
</clipPath><clipPath id="bgblur_1_174_2692_clip_path" transform="translate(-25.7541 -2.83763)"><path d="M56.6052 11.9963C63.3063 11.9965 68.739 17.429 68.739 24.1301C68.739 24.6916 68.6996 25.2441 68.6257 25.7854H70.6687V25.7874C70.6996 25.787 70.7305 25.7854 70.7615 25.7854C75.1274 25.7854 78.6667 29.3248 78.6667 33.6907C78.6667 38.0565 75.1273 41.5959 70.7615 41.5959C70.7305 41.5959 70.6996 41.5934 70.6687 41.593V41.5959H42.9089L42.9099 41.593C42.8793 41.5934 42.8488 41.5959 42.8181 41.5959C38.4522 41.5959 34.9129 38.0566 34.9128 33.6907C34.9128 29.3247 38.4522 25.7854 42.8181 25.7854C43.4357 25.7854 44.0362 25.8585 44.613 25.9924C44.5195 25.3854 44.4714 24.7634 44.4714 24.1301C44.4714 17.4289 49.904 11.9963 56.6052 11.9963Z"/>
</clipPath><linearGradient id="paint0_linear_174_2692" x1="31.6052" y1="-1.1042" x2="31.6052" y2="58.675" gradientUnits="userSpaceOnUse">
<stop stop-color="white"/>
<stop offset="1" stop-color="white" stop-opacity="0"/>
</linearGradient>
<linearGradient id="paint1_linear_174_2692" x1="31.6052" y1="11.9963" x2="31.6052" y2="52.9514" gradientUnits="userSpaceOnUse">
<stop stop-color="white"/>
<stop offset="1" stop-color="white" stop-opacity="0"/>
</linearGradient>
<linearGradient id="paint2_linear_174_2692" x1="58.8249" y1="12.8867" x2="58.8249" y2="44.9405" gradientUnits="userSpaceOnUse">
<stop stop-color="white"/>
<stop offset="1" stop-color="white" stop-opacity="0"/>
</linearGradient>
<linearGradient id="paint3_linear_174_2692" x1="56.7898" y1="11.9963" x2="56.7898" y2="41.5959" gradientUnits="userSpaceOnUse">
<stop stop-color="white"/>
<stop offset="1" stop-color="white" stop-opacity="0"/>
</linearGradient>
<linearGradient id="paint4_linear_174_2692" x1="28.018" y1="42.4206" x2="24.3178" y2="54.5853" gradientUnits="userSpaceOnUse">
<stop stop-color="#138EFF"/>
<stop offset="1" stop-color="#00E0FF"/>
</linearGradient>
<linearGradient id="paint5_linear_174_2692" x1="28.018" y1="42.4206" x2="24.3178" y2="54.5853" gradientUnits="userSpaceOnUse">
<stop stop-color="white"/>
<stop offset="1" stop-color="white" stop-opacity="0"/>
</linearGradient>
<linearGradient id="paint6_linear_174_2692" x1="42.646" y1="42.4206" x2="38.9457" y2="54.5853" gradientUnits="userSpaceOnUse">
<stop stop-color="#138EFF"/>
<stop offset="1" stop-color="#00E0FF"/>
</linearGradient>
<linearGradient id="paint7_linear_174_2692" x1="42.646" y1="42.4206" x2="38.9457" y2="54.5853" gradientUnits="userSpaceOnUse">
<stop stop-color="white"/>
<stop offset="1" stop-color="white" stop-opacity="0"/>
</linearGradient>
<linearGradient id="paint8_linear_174_2692" x1="57.2749" y1="42.4206" x2="53.5746" y2="54.5853" gradientUnits="userSpaceOnUse">
<stop stop-color="#138EFF"/>
<stop offset="1" stop-color="#00E0FF"/>
</linearGradient>
<linearGradient id="paint9_linear_174_2692" x1="57.2749" y1="42.4206" x2="53.5746" y2="54.5853" gradientUnits="userSpaceOnUse">
<stop stop-color="white"/>
<stop offset="1" stop-color="white" stop-opacity="0"/>
</linearGradient>
<linearGradient id="paint10_linear_174_2692" x1="31.8798" y1="53.9988" x2="28.1796" y2="66.1634" gradientUnits="userSpaceOnUse">
<stop stop-color="#138EFF"/>
<stop offset="1" stop-color="#00E0FF"/>
</linearGradient>
<linearGradient id="paint11_linear_174_2692" x1="31.8798" y1="53.9988" x2="28.1796" y2="66.1634" gradientUnits="userSpaceOnUse">
<stop stop-color="white"/>
<stop offset="1" stop-color="white" stop-opacity="0"/>
</linearGradient>
<linearGradient id="paint12_linear_174_2692" x1="44.2402" y1="53.9988" x2="40.5399" y2="66.1634" gradientUnits="userSpaceOnUse">
<stop stop-color="#138EFF"/>
<stop offset="1" stop-color="#00E0FF"/>
</linearGradient>
<linearGradient id="paint13_linear_174_2692" x1="44.2402" y1="53.9988" x2="40.5399" y2="66.1634" gradientUnits="userSpaceOnUse">
<stop stop-color="white"/>
<stop offset="1" stop-color="white" stop-opacity="0"/>
</linearGradient>
</defs>
</svg>
